<?xml version="1.0" encoding="UTF-8"?><svg id="_레이어_2" xmlns="http://www.w3.org/2000/svg" viewBox="0 0 91.08 70"><g id="_레이어_1-2"><path d="m10.12,37.12c-1.43-5.75-2.69-11.55-2.36-17.55.19-3.46.53-6.92.84-10.37.22-2.48.58-4.88,1.3-7.26.16-.5.31-1.02.47-1.53-3.65-.02-7.17-.04-10.37-.03.03,5.08.11,7.44.68,12.49.92,8.22.43,16.57.24,24.84-.03,1.08-.04,2.16-.05,3.25,2.32-1.82,5.14-3.2,8.34-3.73.3-.05.61-.09.92-.13Z" stroke-width="0"/><path d="m90.66,63.55c-.19-2.67-.22-5.31-.23-7.99-.02-5.01.86-10.04.51-15.04-.2-3.04.16-6.08-.03-9.13-.27-4.26-.1-8.5-.39-12.76-.28-4.01-.4-8.03-.65-12.04-.14-2.17-.3-4.46.06-6.48-2.97.38-7.8-.15-10.8-.11-6.77.08-14.37.44-21.13.48-7.02.03-14.73.32-21.76.23-5.69-.07-12.39-.16-19.03-.23-.86,0-1.72-.02-2.57-.02.69,1.32,1.26,2.71,1.64,4.25,1.27,5.12,1.45,7.15,1.93,12.4.63,6.9.56,12.8-1,19.56-.05.22-.1.44-.14.67,1.76.29,3.48.74,5.02,1.33.21.08.43.17.65.25.39-1.19.81-2.36,1.3-3.53,2.17-5.2,4.82-10.44,7.76-15.22,1.35-2.21,2.8-4.43,4.49-6.32,1.29-1.43,2.73-2.52,4.2-3.57,1.36-.98,2.53-1.77,3.96-2.36.07,3.33-.96,6.69-1.88,10.04-.47,1.73-.86,3.47-1.57,5.15-1,2.41-2.38,4.7-3.71,6.93-1.39,2.33-2.83,4.69-4.55,6.73-1.3,1.54-2.75,2.85-4.18,4.19-.18.17-.36.34-.54.51,1.82,1.08,3.49,2.33,4.81,3.82,2.82,3.17,3.73,7.14,4.03,10.92.32,4.02.16,8.48-1.85,12.12-.29.52-.63,1.01-1,1.47,1.73,0,3.45-.01,5.18-.02,8.19-.03,16.37-.06,24.56.19,6.25.19,13.56-.17,19.76-.75,2.31-.22,4.23-.07,7.5-.23.26-1.66-.22-3.72-.34-5.42Z" stroke-width="0"/><path d="m21.92,50.6c-.95.14-1.96.49-2.34,1.46-.2.51-.29,1.17-.16,1.71.16.7.77,1.08,1.4,1.32.58.21,1.48.48,2.07.2.53-.25,1.03-.84,1.15-1.34.12-.46.03-.95-.01-1.43-.02-.24-.32-.81-.5-.96-.43-.36-.54-.79-1.61-.95Z" stroke-width="0"/><path d="m10.73,52.94c.96.05,2.02-.08,2.59-.94.31-.46.52-1.08.51-1.64-.01-.72-.52-1.22-1.1-1.58-.52-.33-1.34-.78-1.99-.63-.57.14-1.18.61-1.41,1.08-.21.43-.22.92-.29,1.4-.02.24.15.87.29,1.04.35.44.36.89,1.38,1.27Z" stroke-width="0"/><path d="m10.26,62.11c6.29,2.07,14.74,2.53,20.42-1.41,1.46-1.02.07-3.43-1.4-2.4-4.93,3.42-11.94,2.93-17.44,1.39-4.61-1.29-8.59-3.93-10.96-7.99.01,1.54.03,3.08.04,4.62,2.46,2.67,5.63,4.58,9.34,5.8Z" stroke-width="0"/><path d="m14.28,45.79c-.93-.48-1.71-1.21-2.61-1.73-.36-.21-.86.02-1.02.38-.19.41.02.81.38,1.02.9.52,1.67,1.25,2.61,1.73.89.45,1.52-.95.64-1.4h0Z" stroke-width="0"/><path d="m21.42,48.72c1.1-.21,2.21-.31,3.32-.45.99-.12.72-1.63-.26-1.51-1.11.13-2.22.24-3.32.44-.97.19-.72,1.7.26,1.52h0Z" stroke-width="0"/><path d="m74.29,21.21c.14.58.37,1.24.69,1.99.31.75.67,1.5,1.06,2.26.39.76.79,1.48,1.18,2.16.4.67.74,1.23,1.04,1.67h-2.97c-.2-.28-.44-.66-.71-1.15-.28-.49-.53-.97-.77-1.45l-.87-1.77c-.14.38-.28.74-.42,1.08-.14.34-.3.68-.46,1.02-.17.34-.36.7-.57,1.07-.21.37-.47.77-.76,1.2h-3.28c.68-.85,1.27-1.73,1.79-2.67.51-.94.95-1.81,1.3-2.61.2-.48.38-.95.56-1.41.18-.47.34-.92.5-1.38h2.7Zm7.93,10.58l-.02,2.54c-.02.53-.07,1.03-.16,1.5-.09.47-.2.88-.31,1.24-.16.46-.31.84-.47,1.17h-2.87c.24-.47.42-.94.55-1.42.13-.48.22-.91.27-1.29.07-.45.09-.89.07-1.31h-10.22v-2.43h13.16Zm-2.79-1.16v-10.27h2.85v10.27h-2.85Z" fill="#fff" stroke-width="0"/><path d="m53.53,51.44h6.57v2.52h-16.49v-2.52h7.11v-4.1h2.81v4.1Zm4.79-9.52v2.28h-12.24v-2.28h12.24Zm-9.94,4.3h10.43v2.3h-12.97v-10.98h12.73v2.28h-10.18v6.4Z" fill="#fff" stroke-width="0"/><path d="m75.68,41.74v3.31c0,2.15-.29,4.06-.85,5.74-.57,1.68-1.26,3.13-2.07,4.36-.82,1.23-1.67,2.23-2.56,3.01-.89.78-1.67,1.35-2.32,1.72v-3.86c.77-.8,1.41-1.61,1.92-2.44.51-.83.92-1.69,1.22-2.58.32-.89.54-1.83.69-2.82.15-.99.25-2.06.31-3.2h-2.92c-.06,1.21-.22,2.33-.47,3.37-.25,1.04-.55,2-.92,2.87-.37.87-.78,1.66-1.24,2.38-.46.72-.91,1.35-1.37,1.9-.56.65-.97,1.08-1.57,1.62-.61.54-1.25,1.04-1.92,1.49v-3.84c1.35-1.39,2.17-2.72,2.8-4.34.62-1.62,1-3.43,1.12-5.46h-4.09v-3.23h14.25Zm6.63,20.78h-3.93v-21.69h3.93v21.69Z" fill="#fff" stroke-width="0"/><path d="m46.61,27.97h3.47v-2.21h-4.91v-3.34h21.6v3.34h-5.15v2.21h3.59v2.6c0,.76-.07,1.47-.2,2.15-.13.68-.28,1.27-.45,1.78l-.65,1.66h-3.95c.2-.43.37-.92.5-1.47.14-.56.25-1.07.36-1.56.04-.29.08-.58.12-.87.04-.3.08-.59.12-.87h-14.45v-3.41Zm7.34,0h3.81v-2.21h-3.81v2.21Z" fill="#fff" stroke-width="0"/><path d="m55.96,7.55c-4.23,0-7.03,2.91-7.03,6.84s2.8,6.84,7.03,6.84,7.03-2.91,7.03-6.84-2.8-6.84-7.03-6.84Zm0,10.03c-1.92,0-3.19-1.36-3.19-3.19s1.27-3.19,3.19-3.19,3.19,1.35,3.19,3.19-1.28,3.19-3.19,3.19Z" fill="#fff" stroke-width="0"/></g></svg>